<svg xmlns="http://www.w3.org/2000/svg" xmlns:xlink="http://www.w3.org/1999/xlink" xmlns:lucid="lucid" width="700" height="400"><g transform="translate(-40 -60)" lucid:page-tab-id="mUidixU9peOd"><path d="M400 201v160.5" fill="none"/><path d="M400 201v3m0 4.02v6.02m0 4v6.03m0 4v6.03m0 4.02v6m0 4.03v6m0 4.03v6.02m0 4v6.03m0 4v6.03m0 4v6.03m0 4v6.02m0 4v6.03m0 4v6.03m0 4.02v6m0 4.03v6.02m0 4v6.03m0 4v3.02M400 201.03V200" stroke="#c92d39" stroke-width="2" fill="none"/><path d="M400 376.76l-4.64-14.26h9.28z" stroke="#c92d39" stroke-width="2" fill="#c92d39"/><path d="M157.54 300H320v40H157.54z" fill="#ffbbb1"/><path d="M173.8 300h-16.26v40h16.25" stroke="#000" stroke-opacity="0" stroke-width="2" fill="none"/><use xlink:href="#a" transform="matrix(1,0,0,1,172.69533253670448,305) translate(55.29736328125 20.896484375)"/><path d="M157.54 220h83.07v40h-83.06z" fill="#ffbbb1"/><path d="M165.85 220h-8.3v40h8.3" stroke="#000" stroke-opacity="0" stroke-width="2" fill="none"/><use xlink:href="#b" transform="matrix(1,0,0,1,167.73316029876315,225) translate(23.1982421875 20.396484375)"/><path d="M240.6 220h160.9v40H240.6z" fill="#ffbbb1"/><path d="M256.7 220h-16.1v40h16.1" stroke="#000" stroke-width="2" fill="none"/><use xlink:href="#c" transform="matrix(1,0,0,1,255.6609735773718,224.99999999999994) translate(86.9912109375 20.396484375)"/><path d="M60 220h100v40H60z" fill="none"/><path d="M160 260c-1.38 0-2.5-1.12-2.5-2.5v-15c0-1.38-1.12-2.5-2.5-2.5 1.38 0 2.5-1.12 2.5-2.5v-15c0-1.38 1.12-2.5 2.5-2.5" stroke="#000" stroke-width="2" fill="none"/><use xlink:href="#d" transform="matrix(1,0,0,1,65,225) translate(0 20.396484375)"/><path d="M401 181.5h-2V160h2zm0-40.17h-2V121h2z"/><path d="M401 121.03h-2V120h2zM400 196.76l-4.64-14.26h9.28z"/><path d="M400 200l-6-18.5h12zm-3.26-16.5l3.26 10.03 3.26-10.03z"/><use xlink:href="#e" transform="matrix(1,0,0,1,378.0061728395062,141.3306859576153) translate(0 12.444444444444446)"/><path d="M60 300h100v40H60z" fill="none"/><path d="M160 340c-1.38 0-2.5-1.12-2.5-2.5v-15c0-1.38-1.12-2.5-2.5-2.5 1.38 0 2.5-1.12 2.5-2.5v-15c0-1.38 1.12-2.5 2.5-2.5" stroke="#000" stroke-width="2" fill="none"/><use xlink:href="#f" transform="matrix(1,0,0,1,65,305) translate(0 20.396484375)"/><path d="M157.82 220h521.13" stroke="#000" stroke-width="2" fill="none"/><path/><path d="M661.4 230.7l18.1-10.7" stroke="#000" stroke-width="2" fill="none"/><path d="M320 299.86h80.97v39.5H320z" fill="#ffbbb1"/><path d="M328.1 299.86H320v39.5h8.1" stroke="#000" stroke-width="2" fill="none"/><use xlink:href="#g" transform="matrix(1,0,0,1,330.06050554690046,304.86122140019285) translate(22.79296875 20.396484375)"/><path d="M161 260h517.95" stroke="#000" stroke-width="2" fill="none"/><path d="M161.03 261H157v-2h.04l.43 1.03 2.15.9.76-1.85-.18-.08h.83z"/><path d="M661.42 249.3L679.5 260M161.24 339.42h258.88v.02h258.83" stroke="#000" stroke-width="2" fill="none"/><path d="M157.47 340.03l.93.4h-1.16v-.94zm3.8.4h-1.44l.55-1.35-1.38-.58-.04-.08h2.3z"/><path d="M661.42 328.75l18.07 10.7" stroke="#000" stroke-width="2" fill="none"/><path d="M320 80h160v60H320z" stroke="#000" stroke-opacity="0" stroke-width="2" fill="#fff" fill-opacity="0"/><use xlink:href="#h" transform="matrix(1,0,0,1,325,85) translate(4.78857421875 30.396484375)"/><use xlink:href="#i" transform="matrix(1,0,0,1,325,85) translate(91.20263671875 30.396484375)"/><path d="M641 181.5h-2v-21.52h2zm0-40.18h-2V121h2z"/><path d="M641 121.03h-2V120h2zM640 196.76l-4.64-14.26h9.28z"/><path d="M640 200l-6-18.5h12zm-3.26-16.5l3.26 10.03 3.26-10.03z"/><use xlink:href="#e" transform="matrix(1,0,0,1,618.0061728395061,141.31634670546816) translate(0 12.444444444444446)"/><path d="M640 201.56V361.5" fill="none"/><path d="M640 201.56v3m0 4v6m0 4v6m0 4v6m0 4v5.98m0 4v6m0 4v6m0 4v6m0 4v6m0 4v5.98m0 4v6m0 4v6m0 4v6m0 4v6m0 4v5.98m0 4v6m0 4v3M640 201.6v-1.04" stroke="#0c7cba" stroke-width="2" fill="none"/><path d="M640 376.76l-4.64-14.26h9.28z" stroke="#0c7cba" stroke-width="2" fill="#0c7cba"/><path d="M80 248.63h40v54.8H80z" stroke="#000" stroke-opacity="0" stroke-width="2" fill="#fff" fill-opacity="0"/><use xlink:href="#j" transform="matrix(1,0,0,1,80,248.63104487607595) translate(14.66579861111111 25.71875)"/><use xlink:href="#j" transform="matrix(1,0,0,1,80,248.63104487607595) translate(14.66579861111111 32.829861111111114)"/><use xlink:href="#k" transform="matrix(1,0,0,1,80,248.63104487607595) translate(14.66579861111111 39.94097222222222)"/><path d="M360 380h80v60h-80z" stroke="#000" stroke-opacity="0" stroke-width="2" fill="#fff" fill-opacity="0"/><use xlink:href="#l" transform="matrix(1,0,0,1,365,385) translate(13.396484375 30.396484375)"/><path d="M610 380h60v60h-60z" stroke="#000" stroke-opacity="0" stroke-width="2" fill="#fff" fill-opacity="0"/><use xlink:href="#m" transform="matrix(1,0,0,1,615,385) translate(3.396484375 30.396484375)"/><path d="M620 300h20v39.44h-20z" fill-opacity="0"/><path d="M622 300h-2v39.44h2" stroke="#000" stroke-width="2" fill="none"/><path d="M600 220.56h20V260h-20z" fill-opacity="0"/><path d="M602 220.56h-2V260h2" stroke="#000" stroke-width="2" fill="none"/><path d="M560 80h160v60H560z" stroke="#000" stroke-opacity="0" stroke-width="2" fill="#fff" fill-opacity="0"/><use xlink:href="#h" transform="matrix(1,0,0,1,565,85) translate(4.78857421875 30.396484375)"/><use xlink:href="#n" transform="matrix(1,0,0,1,565,85) translate(91.20263671875 30.396484375)"/><path d="M399.9 220.1H640v40H399.9z" fill="#3aa6dd" fill-opacity=".3"/><path d="M423.92 220.1h-24v40h24" stroke="#000" stroke-opacity="0" stroke-width="2" fill="none"/><use xlink:href="#o" transform="matrix(1,0,0,1,419.9127988530823,225.09313360583428) translate(0 20.396484375)"/><path d="M399.9 299.93H640v39.44H399.9z" fill="#3aa6dd" fill-opacity=".3"/><path d="M423.92 299.93h-24v39.44h24" stroke="#000" stroke-opacity="0" stroke-width="2" fill="none"/><use xlink:href="#p" transform="matrix(1,0,0,1,419.9127988530823,304.9301152438773) translate(0 20.396484375)"/><path d="M157.82 300H681.5" stroke="#000" stroke-width="2" fill="none"/><path/><path d="M663.96 310.7l18.08-10.7" stroke="#000" stroke-width="2" fill="none"/><path d="M240.6 262v148h100.9" fill="none"/><path d="M240.6 262v3m0 3.97v5.97m0 3.98v5.98m0 3.98v5.97m0 4v5.96m0 4v5.97m0 3.98v5.97m0 3.98v5.98m0 3.98v5.97m0 3.98v6m0 3.97v5.97m0 4v5.96m0 3.98v5.98m0 3.98v5.97m0 4v5.97m0 3.98V410h4.33m3.98 0h5.98m4 0h5.96m3.98 0h5.97m3.98 0h5.97m3.98 0h5.98m4 0h5.96m3.98 0h5.98m3.98 0h5.97m4 0h5.96m3.98 0h3" stroke="#c92d39" stroke-width="2" fill="none"/><path d="M241.6 262.03h-2V261h2z" fill="#c92d39"/><path d="M356.76 410l-14.26 4.64v-9.28z" stroke="#c92d39" stroke-width="2" fill="#c92d39"/><path d="M319.52 341.37V410h21.98" fill="none"/><path d="M319.52 341.37v3.02m0 4.02v6.04m0 4.03v6.03m0 4.02v6.05m0 4.02v6.04m0 4.03v6.03m0 4.03v6.04m0 4.02V410h4.86m4.03 0h6.05m4.03 0h3.02" stroke="#c92d39" stroke-width="2" fill="none"/><path d="M319 340.37h1.52v1.03h-2v-4.03h.48z" fill="#c92d39"/><path d="M356.76 410l-14.26 4.64v-9.28z" stroke="#c92d39" stroke-width="2" fill="#c92d39"/><path d="M600 262v139.5" fill="none"/><path d="M600 262v3m0 3.97v5.98m0 4v5.97m0 3.98v5.98m0 4v5.97m0 3.98v5.98m0 4v5.97m0 4v5.97m0 3.98v5.98m0 4v5.97m0 3.98v5.98m0 4v5.96m0 3.98v5.98m0 3.98v5.98m0 4v2.98" stroke="#0c7cba" stroke-width="2" fill="none"/><path d="M601 262.03h-2V261h2z" fill="#0c7cba"/><path d="M607.53 407.9l-13.87-5.7 6-7.07z" stroke="#0c7cba" stroke-width="2" fill="#0c7cba"/><path d="M620.32 341.44v18.78H640v1.28" fill="none"/><path d="M620.32 341.44v2.98m0 3.98v5.96m0 3.97v1.9h4.07m3.96 0h5.96m3.98 0h1.7v1.27" stroke="#0c7cba" stroke-width="2" fill="none"/><path d="M621.32 341.47h-2v-1.03h2z" fill="#0c7cba"/><path d="M640 376.76l-4.64-14.26h9.28z" stroke="#0c7cba" stroke-width="2" fill="#0c7cba"/><defs><path d="M148-1120c216-7 379-89 463-229h166v1204h353V0H157v-145h439v-1021c-79 124-254 184-448 194v-148" id="q"/><path d="M1065-1013c47 164 49 500-1 665C999-130 875 20 611 20c-377 0-484-300-487-695-2-245 41-425 141-551 77-98 191-144 352-144 261 0 386 140 448 357zM741-155c199-92 203-504 159-785-26-168-96-284-283-284-281 0-308 256-311 549-2 181 18 324 80 428 46 77 115 118 227 120 47 0 90-10 128-28zM496-555v-249h235v249H496" id="r"/><path d="M873-819c-18-114-119-146-250-146-163 0-245 50-245 151 0 151 170 148 294 185 182 54 388 94 388 320 0 240-189 325-439 329-245 4-410-69-454-268l159-31c24 133 136 168 295 165 144-2 270-31 270-171 0-164-195-160-331-202-167-52-350-87-350-299 0-218 173-315 413-313 220 2 373 77 412 260" id="s"/><g id="a"><use transform="matrix(0.0087890625,0,0,0.0087890625,0,0)" xlink:href="#q"/><use transform="matrix(0.0087890625,0,0,0.0087890625,10.8017578125,0)" xlink:href="#r"/><use transform="matrix(0.0087890625,0,0,0.0087890625,21.603515625,0)" xlink:href="#s"/></g><path d="M937-319V0H757v-319H103v-140l635-890h199v888h188v142H937zm-180-835L257-461h500v-693" id="t"/><g id="b"><use transform="matrix(0.0087890625,0,0,0.0087890625,0,0)" xlink:href="#t"/><use transform="matrix(0.0087890625,0,0,0.0087890625,10.8017578125,0)" xlink:href="#s"/></g><path d="M891-1484c-201 251-362 514-362 954 0 441 161 704 362 955H701C500 176 342-90 342-532c0-440 159-704 359-952h190" id="u"/><path d="M259 363l169-662h265L382 363H259" id="v"/><g id="c"><use transform="matrix(0.0087890625,0,0,0.0087890625,0,0)" xlink:href="#u"/><use transform="matrix(0.0087890625,0,0,0.0087890625,10.8017578125,0)" xlink:href="#q"/><use transform="matrix(0.0087890625,0,0,0.0087890625,21.603515625,0)" xlink:href="#q"/><use transform="matrix(0.0087890625,0,0,0.0087890625,32.4052734375,0)" xlink:href="#s"/><use transform="matrix(0.0087890625,0,0,0.0087890625,43.20703125,0)" xlink:href="#v"/></g><path d="M1018 0H814c-67-224-138-444-200-673C552-442 476-224 407 0H204L21-1082h178c43 310 105 601 126 933 54-225 128-425 193-638h193c63 212 134 415 185 638 22-336 90-622 136-933h176" id="w"/><path d="M615-1102c343 0 484 203 482 560-1 347-147 562-488 562-336 0-475-219-479-562-4-349 156-560 485-560zm-8 989c240 0 301-180 301-429 0-245-55-427-290-427-236 0-299 181-299 427 0 243 61 429 288 429" id="x"/><path d="M839-1102c70 0 148 7 206 17v167c-112-18-268-36-363 15-129 69-208 203-208 395V0H294c-10-367 32-789-52-1082h171c21 75 41 161 48 250h5c67-152 152-270 373-270" id="y"/><path d="M914 0L548-499l-132 98V0H236v-1484h180v927l475-525h211L663-617 1125 0H914" id="z"/><path d="M617-1102c355 0 481 238 477 599H322c5 222 84 388 301 388 144 0 244-59 284-166l158 45C1002-72 854 20 623 20c-342 0-490-220-490-568 0-346 151-554 484-554zm291 461c-18-192-90-328-289-328-194 0-287 128-295 328h584" id="A"/><g id="d"><use transform="matrix(0.0087890625,0,0,0.0087890625,0,0)" xlink:href="#w"/><use transform="matrix(0.0087890625,0,0,0.0087890625,10.8017578125,0)" xlink:href="#x"/><use transform="matrix(0.0087890625,0,0,0.0087890625,21.603515625,0)" xlink:href="#y"/><use transform="matrix(0.0087890625,0,0,0.0087890625,32.4052734375,0)" xlink:href="#z"/><use transform="matrix(0.0087890625,0,0,0.0087890625,43.20703125,0)" xlink:href="#A"/><use transform="matrix(0.0087890625,0,0,0.0087890625,54.0087890625,0)" xlink:href="#y"/><use transform="matrix(0.0087890625,0,0,0.0087890625,64.810546875,0)" xlink:href="#r"/></g><path d="M96-169c-40 0-48 33-48 73s9 75 48 75c24 0 41-14 43-38l32 2c-6 37-31 61-74 61-59 0-76-41-82-99-10-93 101-131 147-64 4 7 5 14 7 22l-32 3c-4-21-16-35-41-35" id="B"/><path d="M100-194c62-1 85 37 85 99 1 63-27 99-86 99S16-35 15-95c0-66 28-99 85-99zM99-20c44 1 53-31 53-75 0-43-8-75-51-75s-53 32-53 75 10 74 51 75" id="C"/><path d="M24 0v-261h32V0H24" id="D"/><path d="M100-194c63 0 86 42 84 106H49c0 40 14 67 53 68 26 1 43-12 49-29l28 8c-11 28-37 45-77 45C44 4 14-33 15-96c1-61 26-98 85-98zm52 81c6-60-76-77-97-28-3 7-6 17-6 28h103" id="E"/><path d="M59-47c-2 24 18 29 38 22v24C64 9 27 4 27-40v-127H5v-23h24l9-43h21v43h35v23H59v120" id="F"/><g id="e"><use transform="matrix(0.04320987654320988,0,0,0.04320987654320988,0,0)" xlink:href="#B"/><use transform="matrix(0.04320987654320988,0,0,0.04320987654320988,7.777777777777779,0)" xlink:href="#C"/><use transform="matrix(0.04320987654320988,0,0,0.04320987654320988,16.419753086419753,0)" xlink:href="#D"/><use transform="matrix(0.04320987654320988,0,0,0.04320987654320988,19.833333333333336,0)" xlink:href="#D"/><use transform="matrix(0.04320987654320988,0,0,0.04320987654320988,23.246913580246915,0)" xlink:href="#E"/><use transform="matrix(0.04320987654320988,0,0,0.04320987654320988,31.888888888888893,0)" xlink:href="#B"/><use transform="matrix(0.04320987654320988,0,0,0.04320987654320988,39.66666666666667,0)" xlink:href="#F"/></g><path d="M912-211c-10-84-18-177-18-274v-864h172V0H836L316-1130c7 79 16 167 16 254V0H162v-1349h222" id="G"/><g id="f"><use transform="matrix(0.0087890625,0,0,0.0087890625,0,0)" xlink:href="#w"/><use transform="matrix(0.0087890625,0,0,0.0087890625,10.8017578125,0)" xlink:href="#x"/><use transform="matrix(0.0087890625,0,0,0.0087890625,21.603515625,0)" xlink:href="#y"/><use transform="matrix(0.0087890625,0,0,0.0087890625,32.4052734375,0)" xlink:href="#z"/><use transform="matrix(0.0087890625,0,0,0.0087890625,43.20703125,0)" xlink:href="#A"/><use transform="matrix(0.0087890625,0,0,0.0087890625,54.0087890625,0)" xlink:href="#y"/><use transform="matrix(0.0087890625,0,0,0.0087890625,64.810546875,0)" xlink:href="#G"/></g><path d="M353-779c69-51 166-92 291-90 218 3 357 100 423 255 21 52 32 109 32 170 0 305-189 464-500 464-268 0-424-116-471-335l182-21c35 130 124 212 293 209 198-4 309-114 309-313 0-182-118-282-305-282-120 0-198 45-262 101H169l47-728h801v145H382" id="H"/><g id="g"><use transform="matrix(0.0087890625,0,0,0.0087890625,0,0)" xlink:href="#u"/><use transform="matrix(0.0087890625,0,0,0.0087890625,10.8017578125,0)" xlink:href="#H"/><use transform="matrix(0.0087890625,0,0,0.0087890625,21.603515625,0)" xlink:href="#s"/><use transform="matrix(0.0087890625,0,0,0.0087890625,32.4052734375,0)" xlink:href="#v"/></g><path d="M114 20l821-1504h178L296 20H114" id="I"/><path d="M631 20c-350 0-501-215-501-562 0-355 162-560 502-560 250 0 399 118 446 323l-192 14c-23-124-109-196-262-196-242 0-305 171-305 415 1 245 61 427 304 427 151 0 248-77 267-215l190 12C1039-107 883 20 631 20" id="J"/><path d="M1000-272c3 95 12 159 101 161 21 0 41-3 59-7V-6c-44 10-86 16-139 16-141 2-191-84-197-217h-6C748-76 648 20 446 20c-207 0-318-120-318-322 0-266 194-348 454-354l236-4c12-191-40-305-222-305-140 0-220 47-232 172l-188-17c33-204 181-292 423-292 255 0 401 118 401 364v466zm-683-27c0 109 63 184 175 182 166-3 259-96 306-217 24-65 20-120 20-200-232 7-501-28-501 235" id="K"/><path d="M698-1104c312 3 392 244 392 558 0 315-82 566-392 566-169 0-277-65-331-184h-5c8 188 2 394 4 589H185V-858c0-76-1-156-6-224h175c6 52 9 120 10 178h4c58-122 150-202 330-200zm-49 991c225 0 255-203 255-433 0-225-32-419-253-419-236 0-285 192-285 441 0 237 53 411 283 411" id="L"/><g id="h"><use transform="matrix(0.0087890625,0,0,0.0087890625,0,0)" xlink:href="#I"/><use transform="matrix(0.0087890625,0,0,0.0087890625,10.8017578125,0)" xlink:href="#s"/><use transform="matrix(0.0087890625,0,0,0.0087890625,21.603515625,0)" xlink:href="#J"/><use transform="matrix(0.0087890625,0,0,0.0087890625,32.4052734375,0)" xlink:href="#y"/><use transform="matrix(0.0087890625,0,0,0.0087890625,43.20703125,0)" xlink:href="#K"/><use transform="matrix(0.0087890625,0,0,0.0087890625,54.0087890625,0)" xlink:href="#L"/><use transform="matrix(0.0087890625,0,0,0.0087890625,64.810546875,0)" xlink:href="#A"/></g><path d="M528-1484c201 248 357 511 357 952 0 442-156 709-357 957H336C537 174 700-89 700-530c0-440-163-703-364-954h192" id="M"/><g id="i"><use transform="matrix(0.0087890625,0,0,0.0087890625,0,0)" xlink:href="#u"/><use transform="matrix(0.0087890625,0,0,0.0087890625,10.8017578125,0)" xlink:href="#q"/><use transform="matrix(0.0087890625,0,0,0.0087890625,21.603515625,0)" xlink:href="#H"/><use transform="matrix(0.0087890625,0,0,0.0087890625,32.4052734375,0)" xlink:href="#s"/><use transform="matrix(0.0087890625,0,0,0.0087890625,43.20703125,0)" xlink:href="#M"/></g><path d="M470 0v-305h289V0H470" id="N"/><use transform="matrix(0.008680555555555556,0,0,0.008680555555555556,0,0)" xlink:href="#N" id="j"/><use transform="matrix(0.008680555555555556,0,0,0.008680555555555556,0,0)" xlink:href="#N" id="k"/><path fill="#c92d39" d="M687-608v428H540v-428H116v-146h424v-428h147v428h424v146H687" id="O"/><path fill="#c92d39" d="M1060-1016c0 191-128 285-295 323v4c154 18 262 91 313 209 14 35 21 72 21 110 0 277-194 390-478 390-292 0-457-129-493-382l186-17c24 161 121 250 307 250 172 1 298-80 291-247-8-208-220-239-446-233v-156c217 9 409-34 409-232 0-152-102-225-264-225-159 0-264 88-278 233l-181-14c33-239 196-367 461-367 264 0 447 102 447 354" id="P"/><path fill="#c92d39" d="M1065-1013c47 164 49 500-1 665C999-130 875 20 611 20c-377 0-484-300-487-695-2-245 41-425 141-551 77-98 191-144 352-144 261 0 386 140 448 357zM741-155c199-92 203-504 159-785-26-168-96-284-283-284-281 0-308 256-311 549-2 181 18 324 80 428 46 77 115 118 227 120 47 0 90-10 128-28zM496-555v-249h235v249H496" id="Q"/><path fill="#c92d39" d="M873-819c-18-114-119-146-250-146-163 0-245 50-245 151 0 151 170 148 294 185 182 54 388 94 388 320 0 240-189 325-439 329-245 4-410-69-454-268l159-31c24 133 136 168 295 165 144-2 270-31 270-171 0-164-195-160-331-202-167-52-350-87-350-299 0-218 173-315 413-313 220 2 373 77 412 260" id="R"/><g id="l"><use transform="matrix(0.0087890625,0,0,0.0087890625,0,0)" xlink:href="#O"/><use transform="matrix(0.0087890625,0,0,0.0087890625,10.8017578125,0)" xlink:href="#P"/><use transform="matrix(0.0087890625,0,0,0.0087890625,21.603515625,0)" xlink:href="#Q"/><use transform="matrix(0.0087890625,0,0,0.0087890625,32.4052734375,0)" xlink:href="#R"/></g><path fill="#0c7cba" d="M687-608v428H540v-428H116v-146h424v-428h147v428h424v146H687" id="S"/><path fill="#0c7cba" d="M1060-1016c0 191-128 285-295 323v4c154 18 262 91 313 209 14 35 21 72 21 110 0 277-194 390-478 390-292 0-457-129-493-382l186-17c24 161 121 250 307 250 172 1 298-80 291-247-8-208-220-239-446-233v-156c217 9 409-34 409-232 0-152-102-225-264-225-159 0-264 88-278 233l-181-14c33-239 196-367 461-367 264 0 447 102 447 354" id="T"/><path fill="#0c7cba" d="M1065-1013c47 164 49 500-1 665C999-130 875 20 611 20c-377 0-484-300-487-695-2-245 41-425 141-551 77-98 191-144 352-144 261 0 386 140 448 357zM741-155c199-92 203-504 159-785-26-168-96-284-283-284-281 0-308 256-311 549-2 181 18 324 80 428 46 77 115 118 227 120 47 0 90-10 128-28zM496-555v-249h235v249H496" id="U"/><path fill="#0c7cba" d="M873-819c-18-114-119-146-250-146-163 0-245 50-245 151 0 151 170 148 294 185 182 54 388 94 388 320 0 240-189 325-439 329-245 4-410-69-454-268l159-31c24 133 136 168 295 165 144-2 270-31 270-171 0-164-195-160-331-202-167-52-350-87-350-299 0-218 173-315 413-313 220 2 373 77 412 260" id="V"/><g id="m"><use transform="matrix(0.0087890625,0,0,0.0087890625,0,0)" xlink:href="#S"/><use transform="matrix(0.0087890625,0,0,0.0087890625,10.8017578125,0)" xlink:href="#T"/><use transform="matrix(0.0087890625,0,0,0.0087890625,21.603515625,0)" xlink:href="#U"/><use transform="matrix(0.0087890625,0,0,0.0087890625,32.4052734375,0)" xlink:href="#V"/></g><path d="M1060-1016c0 191-128 285-295 323v4c154 18 262 91 313 209 14 35 21 72 21 110 0 277-194 390-478 390-292 0-457-129-493-382l186-17c24 161 121 250 307 250 172 1 298-80 291-247-8-208-220-239-446-233v-156c217 9 409-34 409-232 0-152-102-225-264-225-159 0-264 88-278 233l-181-14c33-239 196-367 461-367 264 0 447 102 447 354" id="W"/><g id="n"><use transform="matrix(0.0087890625,0,0,0.0087890625,0,0)" xlink:href="#u"/><use transform="matrix(0.0087890625,0,0,0.0087890625,10.8017578125,0)" xlink:href="#W"/><use transform="matrix(0.0087890625,0,0,0.0087890625,21.603515625,0)" xlink:href="#r"/><use transform="matrix(0.0087890625,0,0,0.0087890625,32.4052734375,0)" xlink:href="#s"/><use transform="matrix(0.0087890625,0,0,0.0087890625,43.20703125,0)" xlink:href="#M"/></g><path d="M611-1370c266 0 451 106 451 368 0 147-77 243-154 327-132 144-316 255-451 395-42 44-75 87-96 134h723V0H144v-117c124-264 387-411 582-603 73-72 151-147 151-271 0-161-104-231-266-231-163 0-249 90-268 238l-184-17c35-233 185-369 452-369" id="X"/><g id="o"><use transform="matrix(0.0087890625,0,0,0.0087890625,0,0)" xlink:href="#q"/><use transform="matrix(0.0087890625,0,0,0.0087890625,10.8017578125,0)" xlink:href="#X"/><use transform="matrix(0.0087890625,0,0,0.0087890625,21.603515625,0)" xlink:href="#s"/><use transform="matrix(0.0087890625,0,0,0.0087890625,32.4052734375,0)" xlink:href="#M"/></g><g id="p"><use transform="matrix(0.0087890625,0,0,0.0087890625,0,0)" xlink:href="#q"/><use transform="matrix(0.0087890625,0,0,0.0087890625,10.8017578125,0)" xlink:href="#t"/><use transform="matrix(0.0087890625,0,0,0.0087890625,21.603515625,0)" xlink:href="#s"/><use transform="matrix(0.0087890625,0,0,0.0087890625,32.4052734375,0)" xlink:href="#M"/></g></defs></g></svg>