<svg xmlns="http://www.w3.org/2000/svg" xmlns:xlink="http://www.w3.org/1999/xlink" xmlns:lucid="lucid" width="673.55" height="400"><g transform="translate(-40 0)" lucid:page-tab-id="0_0"><path d="M160 81v39.5" stroke="#000" stroke-width="2" fill="none"/><path d="M161 81.03h-2V80h2z"/><path d="M160 135.76l-4.64-14.26h9.28z" stroke="#000" stroke-width="2"/><path d="M400 81v40.5" stroke="#000" stroke-width="2" fill="none"/><path d="M401 81.03h-2V80h2z"/><path d="M400 136.76l-4.64-14.26h9.28z" stroke="#000" stroke-width="2"/><path d="M120 20h80v60h-80z" stroke="#000" stroke-opacity="0" stroke-width="2" fill="#fff" fill-opacity="0"/><use xlink:href="#a" transform="matrix(1,0,0,1,125,25) translate(24.1982421875 30.396484375)"/><path d="M60 160h100v40H60z" fill="none"/><path d="M160 200c-1.38 0-2.5-1.12-2.5-2.5v-15c0-1.38-1.12-2.5-2.5-2.5 1.38 0 2.5-1.12 2.5-2.5v-15c0-1.38 1.12-2.5 2.5-2.5" stroke="#000" stroke-width="2" fill="none"/><use xlink:href="#b" transform="matrix(1,0,0,1,65,165) translate(0 20.396484375)"/><path d="M60 240h100v40H60z" fill="none"/><path d="M160 280c-1.38 0-2.5-1.12-2.5-2.5v-15c0-1.38-1.12-2.5-2.5-2.5 1.38 0 2.5-1.12 2.5-2.5v-15c0-1.38 1.12-2.5 2.5-2.5" stroke="#000" stroke-width="2" fill="none"/><use xlink:href="#c" transform="matrix(1,0,0,1,65,245) translate(0 20.396484375)"/><path d="M157.82 160h521.13" stroke="#000" stroke-width="2" fill="none"/><path/><path d="M661.4 170.7l18.1-10.7M157.82 240H681.5" stroke="#000" stroke-width="2" fill="none"/><path/><path d="M663.96 250.7l18.08-10.7M161 200h517.95" stroke="#000" stroke-width="2" fill="none"/><path d="M161.03 201H157v-2h.04l.43 1.03 2.15.9.76-1.85-.18-.08h.83z"/><path d="M661.42 189.3L679.5 200M161.24 279.42h258.88v.02h258.83" stroke="#000" stroke-width="2" fill="none"/><path d="M157.47 280.03l.93.4h-1.16v-.94zm3.8.4h-1.44l.55-1.35-1.38-.58-.04-.08h2.3z"/><path d="M661.42 268.75l18.07 10.7" stroke="#000" stroke-width="2" fill="none"/><path d="M360 20h80v60h-80z" stroke="#000" stroke-opacity="0" stroke-width="2" fill="#fff" fill-opacity="0"/><use xlink:href="#d" transform="matrix(1,0,0,1,365,25) translate(18.79736328125 30.396484375)"/><path d="M640 81v40.5" stroke="#000" stroke-width="2" fill="none"/><path d="M641 81.03h-2V80h2z"/><path d="M640 136.76l-4.64-14.26h9.28z" stroke="#000" stroke-width="2"/><path d="M600 20h80v60h-80z" stroke="#000" stroke-opacity="0" stroke-width="2" fill="#fff" fill-opacity="0"/><use xlink:href="#e" transform="matrix(1,0,0,1,605,25) translate(18.79736328125 30.396484375)"/><path d="M239.96 161v38M239.96 161.03V160M239.96 198.97V200M599.8 161v19h.1v19M599.8 161.03V160M599.9 198.97V200M318.97 241v18.7h.46v18.72M318.97 241.03V240M319.43 278.4v1.02M621.7 241v18.72h.08v18.72M621.7 241.03V240M621.78 278.4v1.04" stroke="#000" stroke-width="2" fill="none"/><path d="M180 160h40v40h-40z" stroke="#000" stroke-opacity="0" stroke-width="2" fill="#fff" fill-opacity="0"/><use xlink:href="#f" transform="matrix(1,0,0,1,185,165) translate(4.1982421875 20.396484375)"/><path d="M220 240h40v40h-40z" stroke="#000" stroke-opacity="0" stroke-width="2" fill="#fff" fill-opacity="0"/><use xlink:href="#g" transform="matrix(1,0,0,1,225,245) translate(-1.20263671875 20.396484375)"/><path d="M400 160h40v40h-40z" stroke="#000" stroke-opacity="0" stroke-width="2" fill="#fff" fill-opacity="0"/><use xlink:href="#h" transform="matrix(1,0,0,1,405,165) translate(-1.20263671875 20.396484375)"/><path d="M460 240h40v40h-40z" stroke="#000" stroke-opacity="0" stroke-width="2" fill="#fff" fill-opacity="0"/><use xlink:href="#i" transform="matrix(1,0,0,1,465,245) translate(-1.20263671875 20.396484375)"/><path d="M400 141v160.5" fill="none"/><path d="M400 141v3m0 4.02v6.02m0 4v6.03m0 4v6.03m0 4.02v6m0 4.03v6m0 4.03v6.02m0 4v6.03m0 4v6.03m0 4v6.03m0 4v6.02m0 4v6.03m0 4v6.03m0 4.02v6m0 4.03v6.02m0 4v6.03m0 4v3.02M400 141.03V140" stroke="#c92d39" stroke-width="2" fill="none"/><path d="M400 316.76l-4.64-14.26h9.28z" stroke="#c92d39" stroke-width="2" fill="#c92d39"/><path d="M640 141.56V301.5" fill="none"/><path d="M640 141.56v3m0 4v6m0 4v6m0 4v6m0 4v5.98m0 4v6m0 4v6m0 4v6m0 4v6m0 4v5.98m0 4v6m0 4v6m0 4v6m0 4v6m0 4v5.98m0 4v6m0 4v3M640 141.6v-1.04" stroke="#0c7cba" stroke-width="2" fill="none"/><path d="M640 316.76l-4.64-14.26h9.28z" stroke="#0c7cba" stroke-width="2" fill="#0c7cba"/><path d="M80 188.63h40v54.8H80z" stroke="#000" stroke-opacity="0" stroke-width="2" fill="#fff" fill-opacity="0"/><use xlink:href="#j" transform="matrix(1,0,0,1,80,188.63104487607595) translate(14.66579861111111 25.71875)"/><use xlink:href="#j" transform="matrix(1,0,0,1,80,188.63104487607595) translate(14.66579861111111 32.829861111111114)"/><use xlink:href="#k" transform="matrix(1,0,0,1,80,188.63104487607595) translate(14.66579861111111 39.94097222222222)"/><path d="M360 320h80v60h-80z" stroke="#000" stroke-opacity="0" stroke-width="2" fill="#fff" fill-opacity="0"/><use xlink:href="#l" transform="matrix(1,0,0,1,365,325) translate(13.396484375 30.396484375)"/><path d="M600 320h80v60h-80z" stroke="#000" stroke-opacity="0" stroke-width="2" fill="#fff" fill-opacity="0"/><g><use xlink:href="#m" transform="matrix(1,0,0,1,605,325) translate(13.396484375 30.396484375)"/></g><defs><path d="M1065-1013c47 164 49 500-1 665C999-130 875 20 611 20c-377 0-484-300-487-695-2-245 41-425 141-551 77-98 191-144 352-144 261 0 386 140 448 357zM741-155c199-92 203-504 159-785-26-168-96-284-283-284-281 0-308 256-311 549-2 181 18 324 80 428 46 77 115 118 227 120 47 0 90-10 128-28zM496-555v-249h235v249H496" id="n"/><path d="M873-819c-18-114-119-146-250-146-163 0-245 50-245 151 0 151 170 148 294 185 182 54 388 94 388 320 0 240-189 325-439 329-245 4-410-69-454-268l159-31c24 133 136 168 295 165 144-2 270-31 270-171 0-164-195-160-331-202-167-52-350-87-350-299 0-218 173-315 413-313 220 2 373 77 412 260" id="o"/><g id="a"><use transform="matrix(0.0087890625,0,0,0.0087890625,0,0)" xlink:href="#n"/><use transform="matrix(0.0087890625,0,0,0.0087890625,10.8017578125,0)" xlink:href="#o"/></g><path d="M1018 0H814c-67-224-138-444-200-673C552-442 476-224 407 0H204L21-1082h178c43 310 105 601 126 933 54-225 128-425 193-638h193c63 212 134 415 185 638 22-336 90-622 136-933h176" id="p"/><path d="M615-1102c343 0 484 203 482 560-1 347-147 562-488 562-336 0-475-219-479-562-4-349 156-560 485-560zm-8 989c240 0 301-180 301-429 0-245-55-427-290-427-236 0-299 181-299 427 0 243 61 429 288 429" id="q"/><path d="M839-1102c70 0 148 7 206 17v167c-112-18-268-36-363 15-129 69-208 203-208 395V0H294c-10-367 32-789-52-1082h171c21 75 41 161 48 250h5c67-152 152-270 373-270" id="r"/><path d="M914 0L548-499l-132 98V0H236v-1484h180v927l475-525h211L663-617 1125 0H914" id="s"/><path d="M617-1102c355 0 481 238 477 599H322c5 222 84 388 301 388 144 0 244-59 284-166l158 45C1002-72 854 20 623 20c-342 0-490-220-490-568 0-346 151-554 484-554zm291 461c-18-192-90-328-289-328-194 0-287 128-295 328h584" id="t"/><g id="b"><use transform="matrix(0.0087890625,0,0,0.0087890625,0,0)" xlink:href="#p"/><use transform="matrix(0.0087890625,0,0,0.0087890625,10.8017578125,0)" xlink:href="#q"/><use transform="matrix(0.0087890625,0,0,0.0087890625,21.603515625,0)" xlink:href="#r"/><use transform="matrix(0.0087890625,0,0,0.0087890625,32.4052734375,0)" xlink:href="#s"/><use transform="matrix(0.0087890625,0,0,0.0087890625,43.20703125,0)" xlink:href="#t"/><use transform="matrix(0.0087890625,0,0,0.0087890625,54.0087890625,0)" xlink:href="#r"/><use transform="matrix(0.0087890625,0,0,0.0087890625,64.810546875,0)" xlink:href="#n"/></g><path d="M912-211c-10-84-18-177-18-274v-864h172V0H836L316-1130c7 79 16 167 16 254V0H162v-1349h222" id="u"/><g id="c"><use transform="matrix(0.0087890625,0,0,0.0087890625,0,0)" xlink:href="#p"/><use transform="matrix(0.0087890625,0,0,0.0087890625,10.8017578125,0)" xlink:href="#q"/><use transform="matrix(0.0087890625,0,0,0.0087890625,21.603515625,0)" xlink:href="#r"/><use transform="matrix(0.0087890625,0,0,0.0087890625,32.4052734375,0)" xlink:href="#s"/><use transform="matrix(0.0087890625,0,0,0.0087890625,43.20703125,0)" xlink:href="#t"/><use transform="matrix(0.0087890625,0,0,0.0087890625,54.0087890625,0)" xlink:href="#r"/><use transform="matrix(0.0087890625,0,0,0.0087890625,64.810546875,0)" xlink:href="#u"/></g><path d="M148-1120c216-7 379-89 463-229h166v1204h353V0H157v-145h439v-1021c-79 124-254 184-448 194v-148" id="v"/><path d="M353-779c69-51 166-92 291-90 218 3 357 100 423 255 21 52 32 109 32 170 0 305-189 464-500 464-268 0-424-116-471-335l182-21c35 130 124 212 293 209 198-4 309-114 309-313 0-182-118-282-305-282-120 0-198 45-262 101H169l47-728h801v145H382" id="w"/><g id="d"><use transform="matrix(0.0087890625,0,0,0.0087890625,0,0)" xlink:href="#v"/><use transform="matrix(0.0087890625,0,0,0.0087890625,10.8017578125,0)" xlink:href="#w"/><use transform="matrix(0.0087890625,0,0,0.0087890625,21.603515625,0)" xlink:href="#o"/></g><path d="M1060-1016c0 191-128 285-295 323v4c154 18 262 91 313 209 14 35 21 72 21 110 0 277-194 390-478 390-292 0-457-129-493-382l186-17c24 161 121 250 307 250 172 1 298-80 291-247-8-208-220-239-446-233v-156c217 9 409-34 409-232 0-152-102-225-264-225-159 0-264 88-278 233l-181-14c33-239 196-367 461-367 264 0 447 102 447 354" id="x"/><g id="e"><use transform="matrix(0.0087890625,0,0,0.0087890625,0,0)" xlink:href="#x"/><use transform="matrix(0.0087890625,0,0,0.0087890625,10.8017578125,0)" xlink:href="#n"/><use transform="matrix(0.0087890625,0,0,0.0087890625,21.603515625,0)" xlink:href="#o"/></g><path d="M937-319V0H757v-319H103v-140l635-890h199v888h188v142H937zm-180-835L257-461h500v-693" id="y"/><g id="f"><use transform="matrix(0.0087890625,0,0,0.0087890625,0,0)" xlink:href="#y"/><use transform="matrix(0.0087890625,0,0,0.0087890625,10.8017578125,0)" xlink:href="#o"/></g><g id="g"><use transform="matrix(0.0087890625,0,0,0.0087890625,0,0)" xlink:href="#v"/><use transform="matrix(0.0087890625,0,0,0.0087890625,10.8017578125,0)" xlink:href="#n"/><use transform="matrix(0.0087890625,0,0,0.0087890625,21.603515625,0)" xlink:href="#o"/></g><path d="M611-1370c266 0 451 106 451 368 0 147-77 243-154 327-132 144-316 255-451 395-42 44-75 87-96 134h723V0H144v-117c124-264 387-411 582-603 73-72 151-147 151-271 0-161-104-231-266-231-163 0-249 90-268 238l-184-17c35-233 185-369 452-369" id="z"/><g id="h"><use transform="matrix(0.0087890625,0,0,0.0087890625,0,0)" xlink:href="#z"/><use transform="matrix(0.0087890625,0,0,0.0087890625,10.8017578125,0)" xlink:href="#x"/><use transform="matrix(0.0087890625,0,0,0.0087890625,21.603515625,0)" xlink:href="#o"/></g><path d="M141-911c0-296 172-459 469-459 157 0 276 55 356 166s121 278 121 501c-1 324-87 567-297 677-134 70-367 56-475-22-71-52-117-126-145-226l172-27c34 111 103 176 238 176 187 0 261-138 304-298 16-65 24-141 25-227-59 121-177 199-350 199-275 0-418-184-418-460zm461 318c168 0 289-96 289-269 0-158-59-275-163-332-36-20-77-30-124-30-187 0-280 125-280 313s90 318 278 318" id="A"/><g id="i"><use transform="matrix(0.0087890625,0,0,0.0087890625,0,0)" xlink:href="#v"/><use transform="matrix(0.0087890625,0,0,0.0087890625,10.8017578125,0)" xlink:href="#A"/><use transform="matrix(0.0087890625,0,0,0.0087890625,21.603515625,0)" xlink:href="#o"/></g><path d="M470 0v-305h289V0H470" id="B"/><use transform="matrix(0.008680555555555556,0,0,0.008680555555555556,0,0)" xlink:href="#B" id="j"/><use transform="matrix(0.008680555555555556,0,0,0.008680555555555556,0,0)" xlink:href="#B" id="k"/><path d="M687-608v428H540v-428H116v-146h424v-428h147v428h424v146H687" id="C"/><g id="l"><use transform="matrix(0.0087890625,0,0,0.0087890625,0,0)" xlink:href="#C"/><use transform="matrix(0.0087890625,0,0,0.0087890625,10.8017578125,0)" xlink:href="#v"/><use transform="matrix(0.0087890625,0,0,0.0087890625,21.603515625,0)" xlink:href="#y"/><use transform="matrix(0.0087890625,0,0,0.0087890625,32.4052734375,0)" xlink:href="#o"/></g><g id="m"><use transform="matrix(0.0087890625,0,0,0.0087890625,0,0)" xlink:href="#C"/><use transform="matrix(0.0087890625,0,0,0.0087890625,10.8017578125,0)" xlink:href="#y"/><use transform="matrix(0.0087890625,0,0,0.0087890625,21.603515625,0)" xlink:href="#z"/><use transform="matrix(0.0087890625,0,0,0.0087890625,32.4052734375,0)" xlink:href="#o"/></g></defs></g></svg>