<svg xmlns="http://www.w3.org/2000/svg" xmlns:xlink="http://www.w3.org/1999/xlink" xmlns:lucid="lucid" width="700" height="400"><g transform="translate(-40 0)" lucid:page-tab-id="0_0"><path d="M157.54 160h83.07v40h-83.06z" fill="#ffbbb1"/><path d="M165.85 160h-8.3v40h8.3" stroke="#000" stroke-opacity="0" stroke-width="2" fill="none"/><use xlink:href="#a" transform="matrix(1,0,0,1,167.73316029876312,165) translate(23.1982421875 20.396484375)"/><path d="M157.54 240H320v40H157.54z" fill="#ffbbb1"/><path d="M173.8 240h-16.26v40h16.25" stroke="#000" stroke-opacity="0" stroke-width="2" fill="none"/><use xlink:href="#b" transform="matrix(1,0,0,1,172.69533253670446,245) translate(55.29736328125 20.896484375)"/><path d="M240.6 160H600v40H240.6z" fill="#3aa6dd" fill-opacity=".3"/><path d="M276.54 160H240.6v40h35.94" stroke="#000" stroke-width="2" fill="none"/><use xlink:href="#c" transform="matrix(1,0,0,1,268.0674164308803,165) translate(147.29736328125 20.396484375)"/><path d="M320 240h300v39.44H320z" fill="#3aa6dd" fill-opacity=".3"/><path d="M350 240h-30v39.44h30" stroke="#000" stroke-width="2" fill="none"/><use xlink:href="#d" transform="matrix(1,0,0,1,343.75,245) translate(119.79736328125 20.396484375)"/><path d="M400 81v40.5" stroke="#000" stroke-width="2" fill="none"/><path d="M401 81.03h-2V80h2z"/><path d="M400 136.76l-4.64-14.26h9.28z" stroke="#000" stroke-width="2"/><path d="M60 160h100v40H60z" fill="none"/><path d="M160 200c-1.38 0-2.5-1.12-2.5-2.5v-15c0-1.38-1.12-2.5-2.5-2.5 1.38 0 2.5-1.12 2.5-2.5v-15c0-1.38 1.12-2.5 2.5-2.5" stroke="#000" stroke-width="2" fill="none"/><use xlink:href="#e" transform="matrix(1,0,0,1,65,165) translate(0 20.396484375)"/><path d="M60 240h100v40H60z" fill="none"/><path d="M160 280c-1.38 0-2.5-1.12-2.5-2.5v-15c0-1.38-1.12-2.5-2.5-2.5 1.38 0 2.5-1.12 2.5-2.5v-15c0-1.38 1.12-2.5 2.5-2.5" stroke="#000" stroke-width="2" fill="none"/><use xlink:href="#f" transform="matrix(1,0,0,1,65,245) translate(0 20.396484375)"/><path d="M157.82 160h521.13" stroke="#000" stroke-width="2" fill="none"/><path/><path d="M661.4 170.7l18.1-10.7M157.82 240H681.5" stroke="#000" stroke-width="2" fill="none"/><path/><path d="M663.96 250.7l18.08-10.7M161 200h517.95" stroke="#000" stroke-width="2" fill="none"/><path d="M161.03 201H157v-2h.04l.43 1.03 2.15.9.76-1.85-.18-.08h.83z"/><path d="M661.42 189.3L679.5 200M161.24 279.42h258.88v.02h258.83" stroke="#000" stroke-width="2" fill="none"/><path d="M157.47 280.03l.93.4h-1.16v-.94zm3.8.4h-1.44l.55-1.35-1.38-.58-.04-.08h2.3z"/><path d="M661.42 268.75l18.07 10.7" stroke="#000" stroke-width="2" fill="none"/><path d="M320 20h160v60H320z" stroke="#000" stroke-opacity="0" stroke-width="2" fill="#fff" fill-opacity="0"/><use xlink:href="#g" transform="matrix(1,0,0,1,325,25) translate(4.78857421875 30.396484375)"/><use xlink:href="#h" transform="matrix(1,0,0,1,325,25) translate(91.20263671875 30.396484375)"/><path d="M640 81v40.5" stroke="#000" stroke-width="2" fill="none"/><path d="M641 81.03h-2V80h2z"/><path d="M640 136.76l-4.64-14.26h9.28z" stroke="#000" stroke-width="2"/><path d="M400 141v160.5" fill="none"/><path d="M400 141v3m0 4.02v6.02m0 4v6.03m0 4v6.03m0 4.02v6m0 4.03v6m0 4.03v6.02m0 4v6.03m0 4v6.03m0 4v6.03m0 4v6.02m0 4v6.03m0 4v6.03m0 4.02v6m0 4.03v6.02m0 4v6.03m0 4v3.02M400 141.03V140" stroke="#c92d39" stroke-width="2" fill="none"/><path d="M400 316.76l-4.64-14.26h9.28z" stroke="#c92d39" stroke-width="2" fill="#c92d39"/><path d="M640 141.56V301.5" fill="none"/><path d="M640 141.56v3m0 4v6m0 4v6m0 4v6m0 4v5.98m0 4v6m0 4v6m0 4v6m0 4v6m0 4v5.98m0 4v6m0 4v6m0 4v6m0 4v6m0 4v5.98m0 4v6m0 4v3M640 141.6v-1.04" stroke="#0c7cba" stroke-width="2" fill="none"/><path d="M640 316.76l-4.64-14.26h9.28z" stroke="#0c7cba" stroke-width="2" fill="#0c7cba"/><path d="M80 188.63h40v54.8H80z" stroke="#000" stroke-opacity="0" stroke-width="2" fill="#fff" fill-opacity="0"/><use xlink:href="#i" transform="matrix(1,0,0,1,80,188.63104487607595) translate(14.66579861111111 25.71875)"/><use xlink:href="#i" transform="matrix(1,0,0,1,80,188.63104487607595) translate(14.66579861111111 32.829861111111114)"/><use xlink:href="#j" transform="matrix(1,0,0,1,80,188.63104487607595) translate(14.66579861111111 39.94097222222222)"/><path d="M360 320h80v60h-80z" stroke="#000" stroke-opacity="0" stroke-width="2" fill="#fff" fill-opacity="0"/><use xlink:href="#k" transform="matrix(1,0,0,1,365,325) translate(13.396484375 30.396484375)"/><path d="M600 320h80v60h-80z" stroke="#000" stroke-opacity="0" stroke-width="2" fill="#fff" fill-opacity="0"/><use xlink:href="#l" transform="matrix(1,0,0,1,605,325) translate(13.396484375 30.396484375)"/><path d="M620 240h20v39.44h-20z" fill-opacity="0"/><path d="M622 240h-2v39.44h2" stroke="#000" stroke-width="2" fill="none"/><path d="M600 160.56h20V200h-20z" fill-opacity="0"/><path d="M602 160.56h-2V200h2" stroke="#000" stroke-width="2" fill="none"/><path d="M560 20h160v60H560z" stroke="#000" stroke-opacity="0" stroke-width="2" fill="#fff" fill-opacity="0"/><g><use xlink:href="#g" transform="matrix(1,0,0,1,565,25) translate(4.78857421875 30.396484375)"/><use xlink:href="#m" transform="matrix(1,0,0,1,565,25) translate(91.20263671875 30.396484375)"/></g><defs><path d="M937-319V0H757v-319H103v-140l635-890h199v888h188v142H937zm-180-835L257-461h500v-693" id="n"/><path d="M873-819c-18-114-119-146-250-146-163 0-245 50-245 151 0 151 170 148 294 185 182 54 388 94 388 320 0 240-189 325-439 329-245 4-410-69-454-268l159-31c24 133 136 168 295 165 144-2 270-31 270-171 0-164-195-160-331-202-167-52-350-87-350-299 0-218 173-315 413-313 220 2 373 77 412 260" id="o"/><g id="a"><use transform="matrix(0.0087890625,0,0,0.0087890625,0,0)" xlink:href="#n"/><use transform="matrix(0.0087890625,0,0,0.0087890625,10.8017578125,0)" xlink:href="#o"/></g><path d="M148-1120c216-7 379-89 463-229h166v1204h353V0H157v-145h439v-1021c-79 124-254 184-448 194v-148" id="p"/><path d="M1065-1013c47 164 49 500-1 665C999-130 875 20 611 20c-377 0-484-300-487-695-2-245 41-425 141-551 77-98 191-144 352-144 261 0 386 140 448 357zM741-155c199-92 203-504 159-785-26-168-96-284-283-284-281 0-308 256-311 549-2 181 18 324 80 428 46 77 115 118 227 120 47 0 90-10 128-28zM496-555v-249h235v249H496" id="q"/><g id="b"><use transform="matrix(0.0087890625,0,0,0.0087890625,0,0)" xlink:href="#p"/><use transform="matrix(0.0087890625,0,0,0.0087890625,10.8017578125,0)" xlink:href="#q"/><use transform="matrix(0.0087890625,0,0,0.0087890625,21.603515625,0)" xlink:href="#o"/></g><path d="M611-1370c266 0 451 106 451 368 0 147-77 243-154 327-132 144-316 255-451 395-42 44-75 87-96 134h723V0H144v-117c124-264 387-411 582-603 73-72 151-147 151-271 0-161-104-231-266-231-163 0-249 90-268 238l-184-17c35-233 185-369 452-369" id="r"/><path d="M1060-1016c0 191-128 285-295 323v4c154 18 262 91 313 209 14 35 21 72 21 110 0 277-194 390-478 390-292 0-457-129-493-382l186-17c24 161 121 250 307 250 172 1 298-80 291-247-8-208-220-239-446-233v-156c217 9 409-34 409-232 0-152-102-225-264-225-159 0-264 88-278 233l-181-14c33-239 196-367 461-367 264 0 447 102 447 354" id="s"/><g id="c"><use transform="matrix(0.0087890625,0,0,0.0087890625,0,0)" xlink:href="#r"/><use transform="matrix(0.0087890625,0,0,0.0087890625,10.8017578125,0)" xlink:href="#s"/><use transform="matrix(0.0087890625,0,0,0.0087890625,21.603515625,0)" xlink:href="#o"/></g><path d="M141-911c0-296 172-459 469-459 157 0 276 55 356 166s121 278 121 501c-1 324-87 567-297 677-134 70-367 56-475-22-71-52-117-126-145-226l172-27c34 111 103 176 238 176 187 0 261-138 304-298 16-65 24-141 25-227-59 121-177 199-350 199-275 0-418-184-418-460zm461 318c168 0 289-96 289-269 0-158-59-275-163-332-36-20-77-30-124-30-187 0-280 125-280 313s90 318 278 318" id="t"/><g id="d"><use transform="matrix(0.0087890625,0,0,0.0087890625,0,0)" xlink:href="#p"/><use transform="matrix(0.0087890625,0,0,0.0087890625,10.8017578125,0)" xlink:href="#t"/><use transform="matrix(0.0087890625,0,0,0.0087890625,21.603515625,0)" xlink:href="#o"/></g><path d="M1018 0H814c-67-224-138-444-200-673C552-442 476-224 407 0H204L21-1082h178c43 310 105 601 126 933 54-225 128-425 193-638h193c63 212 134 415 185 638 22-336 90-622 136-933h176" id="u"/><path d="M615-1102c343 0 484 203 482 560-1 347-147 562-488 562-336 0-475-219-479-562-4-349 156-560 485-560zm-8 989c240 0 301-180 301-429 0-245-55-427-290-427-236 0-299 181-299 427 0 243 61 429 288 429" id="v"/><path d="M839-1102c70 0 148 7 206 17v167c-112-18-268-36-363 15-129 69-208 203-208 395V0H294c-10-367 32-789-52-1082h171c21 75 41 161 48 250h5c67-152 152-270 373-270" id="w"/><path d="M914 0L548-499l-132 98V0H236v-1484h180v927l475-525h211L663-617 1125 0H914" id="x"/><path d="M617-1102c355 0 481 238 477 599H322c5 222 84 388 301 388 144 0 244-59 284-166l158 45C1002-72 854 20 623 20c-342 0-490-220-490-568 0-346 151-554 484-554zm291 461c-18-192-90-328-289-328-194 0-287 128-295 328h584" id="y"/><g id="e"><use transform="matrix(0.0087890625,0,0,0.0087890625,0,0)" xlink:href="#u"/><use transform="matrix(0.0087890625,0,0,0.0087890625,10.8017578125,0)" xlink:href="#v"/><use transform="matrix(0.0087890625,0,0,0.0087890625,21.603515625,0)" xlink:href="#w"/><use transform="matrix(0.0087890625,0,0,0.0087890625,32.4052734375,0)" xlink:href="#x"/><use transform="matrix(0.0087890625,0,0,0.0087890625,43.20703125,0)" xlink:href="#y"/><use transform="matrix(0.0087890625,0,0,0.0087890625,54.0087890625,0)" xlink:href="#w"/><use transform="matrix(0.0087890625,0,0,0.0087890625,64.810546875,0)" xlink:href="#q"/></g><path d="M912-211c-10-84-18-177-18-274v-864h172V0H836L316-1130c7 79 16 167 16 254V0H162v-1349h222" id="z"/><g id="f"><use transform="matrix(0.0087890625,0,0,0.0087890625,0,0)" xlink:href="#u"/><use transform="matrix(0.0087890625,0,0,0.0087890625,10.8017578125,0)" xlink:href="#v"/><use transform="matrix(0.0087890625,0,0,0.0087890625,21.603515625,0)" xlink:href="#w"/><use transform="matrix(0.0087890625,0,0,0.0087890625,32.4052734375,0)" xlink:href="#x"/><use transform="matrix(0.0087890625,0,0,0.0087890625,43.20703125,0)" xlink:href="#y"/><use transform="matrix(0.0087890625,0,0,0.0087890625,54.0087890625,0)" xlink:href="#w"/><use transform="matrix(0.0087890625,0,0,0.0087890625,64.810546875,0)" xlink:href="#z"/></g><path d="M114 20l821-1504h178L296 20H114" id="A"/><path d="M631 20c-350 0-501-215-501-562 0-355 162-560 502-560 250 0 399 118 446 323l-192 14c-23-124-109-196-262-196-242 0-305 171-305 415 1 245 61 427 304 427 151 0 248-77 267-215l190 12C1039-107 883 20 631 20" id="B"/><path d="M1000-272c3 95 12 159 101 161 21 0 41-3 59-7V-6c-44 10-86 16-139 16-141 2-191-84-197-217h-6C748-76 648 20 446 20c-207 0-318-120-318-322 0-266 194-348 454-354l236-4c12-191-40-305-222-305-140 0-220 47-232 172l-188-17c33-204 181-292 423-292 255 0 401 118 401 364v466zm-683-27c0 109 63 184 175 182 166-3 259-96 306-217 24-65 20-120 20-200-232 7-501-28-501 235" id="C"/><path d="M698-1104c312 3 392 244 392 558 0 315-82 566-392 566-169 0-277-65-331-184h-5c8 188 2 394 4 589H185V-858c0-76-1-156-6-224h175c6 52 9 120 10 178h4c58-122 150-202 330-200zm-49 991c225 0 255-203 255-433 0-225-32-419-253-419-236 0-285 192-285 441 0 237 53 411 283 411" id="D"/><g id="g"><use transform="matrix(0.0087890625,0,0,0.0087890625,0,0)" xlink:href="#A"/><use transform="matrix(0.0087890625,0,0,0.0087890625,10.8017578125,0)" xlink:href="#o"/><use transform="matrix(0.0087890625,0,0,0.0087890625,21.603515625,0)" xlink:href="#B"/><use transform="matrix(0.0087890625,0,0,0.0087890625,32.4052734375,0)" xlink:href="#w"/><use transform="matrix(0.0087890625,0,0,0.0087890625,43.20703125,0)" xlink:href="#C"/><use transform="matrix(0.0087890625,0,0,0.0087890625,54.0087890625,0)" xlink:href="#D"/><use transform="matrix(0.0087890625,0,0,0.0087890625,64.810546875,0)" xlink:href="#y"/></g><path d="M891-1484c-201 251-362 514-362 954 0 441 161 704 362 955H701C500 176 342-90 342-532c0-440 159-704 359-952h190" id="E"/><path d="M353-779c69-51 166-92 291-90 218 3 357 100 423 255 21 52 32 109 32 170 0 305-189 464-500 464-268 0-424-116-471-335l182-21c35 130 124 212 293 209 198-4 309-114 309-313 0-182-118-282-305-282-120 0-198 45-262 101H169l47-728h801v145H382" id="F"/><path d="M528-1484c201 248 357 511 357 952 0 442-156 709-357 957H336C537 174 700-89 700-530c0-440-163-703-364-954h192" id="G"/><g id="h"><use transform="matrix(0.0087890625,0,0,0.0087890625,0,0)" xlink:href="#E"/><use transform="matrix(0.0087890625,0,0,0.0087890625,10.8017578125,0)" xlink:href="#p"/><use transform="matrix(0.0087890625,0,0,0.0087890625,21.603515625,0)" xlink:href="#F"/><use transform="matrix(0.0087890625,0,0,0.0087890625,32.4052734375,0)" xlink:href="#o"/><use transform="matrix(0.0087890625,0,0,0.0087890625,43.20703125,0)" xlink:href="#G"/></g><path d="M470 0v-305h289V0H470" id="H"/><use transform="matrix(0.008680555555555556,0,0,0.008680555555555556,0,0)" xlink:href="#H" id="i"/><use transform="matrix(0.008680555555555556,0,0,0.008680555555555556,0,0)" xlink:href="#H" id="j"/><path fill="#c92d39" d="M687-608v428H540v-428H116v-146h424v-428h147v428h424v146H687" id="I"/><path fill="#c92d39" d="M148-1120c216-7 379-89 463-229h166v1204h353V0H157v-145h439v-1021c-79 124-254 184-448 194v-148" id="J"/><path fill="#c92d39" d="M937-319V0H757v-319H103v-140l635-890h199v888h188v142H937zm-180-835L257-461h500v-693" id="K"/><path fill="#c92d39" d="M873-819c-18-114-119-146-250-146-163 0-245 50-245 151 0 151 170 148 294 185 182 54 388 94 388 320 0 240-189 325-439 329-245 4-410-69-454-268l159-31c24 133 136 168 295 165 144-2 270-31 270-171 0-164-195-160-331-202-167-52-350-87-350-299 0-218 173-315 413-313 220 2 373 77 412 260" id="L"/><g id="k"><use transform="matrix(0.0087890625,0,0,0.0087890625,0,0)" xlink:href="#I"/><use transform="matrix(0.0087890625,0,0,0.0087890625,10.8017578125,0)" xlink:href="#J"/><use transform="matrix(0.0087890625,0,0,0.0087890625,21.603515625,0)" xlink:href="#K"/><use transform="matrix(0.0087890625,0,0,0.0087890625,32.4052734375,0)" xlink:href="#L"/></g><path fill="#0c7cba" d="M687-608v428H540v-428H116v-146h424v-428h147v428h424v146H687" id="M"/><path fill="#0c7cba" d="M937-319V0H757v-319H103v-140l635-890h199v888h188v142H937zm-180-835L257-461h500v-693" id="N"/><path fill="#0c7cba" d="M611-1370c266 0 451 106 451 368 0 147-77 243-154 327-132 144-316 255-451 395-42 44-75 87-96 134h723V0H144v-117c124-264 387-411 582-603 73-72 151-147 151-271 0-161-104-231-266-231-163 0-249 90-268 238l-184-17c35-233 185-369 452-369" id="O"/><path fill="#0c7cba" d="M873-819c-18-114-119-146-250-146-163 0-245 50-245 151 0 151 170 148 294 185 182 54 388 94 388 320 0 240-189 325-439 329-245 4-410-69-454-268l159-31c24 133 136 168 295 165 144-2 270-31 270-171 0-164-195-160-331-202-167-52-350-87-350-299 0-218 173-315 413-313 220 2 373 77 412 260" id="P"/><g id="l"><use transform="matrix(0.0087890625,0,0,0.0087890625,0,0)" xlink:href="#M"/><use transform="matrix(0.0087890625,0,0,0.0087890625,10.8017578125,0)" xlink:href="#N"/><use transform="matrix(0.0087890625,0,0,0.0087890625,21.603515625,0)" xlink:href="#O"/><use transform="matrix(0.0087890625,0,0,0.0087890625,32.4052734375,0)" xlink:href="#P"/></g><g id="m"><use transform="matrix(0.0087890625,0,0,0.0087890625,0,0)" xlink:href="#E"/><use transform="matrix(0.0087890625,0,0,0.0087890625,10.8017578125,0)" xlink:href="#s"/><use transform="matrix(0.0087890625,0,0,0.0087890625,21.603515625,0)" xlink:href="#q"/><use transform="matrix(0.0087890625,0,0,0.0087890625,32.4052734375,0)" xlink:href="#o"/><use transform="matrix(0.0087890625,0,0,0.0087890625,43.20703125,0)" xlink:href="#G"/></g></defs></g></svg>